<svg xmlns="http://www.w3.org/2000/svg" viewBox="0 0 218.59 220.65"><defs><style>.cls-1{fill:none;stroke:#a67c52;stroke-miterlimit:10;}</style></defs><title>Asset 3</title><g id="Layer_2" data-name="Layer 2"><g id="Layer_3" data-name="Layer 3"><path class="cls-1" d="M46.84,157.51a38.75,38.75,0,0,1-10.5-1.5c-5.72-1.64-12.23-5-18.5-9.5-11.94-8.46-19-25.42-17-42S11.18,78.12,23.34,70c3-2,12-6,15.39-6.34,5.73-.58,10.11-1.16,10.11-1.16s-.87-6.42-2-12c-3.14-15.49,9.54-31.15,12-34a48.49,48.49,0,0,1,34-16c1.15,0,19-.51,33,12,5.51,4.94,10.75,9.64,12,17a44,44,0,0,0,2,7s7.13-4.08,12-7c12.06-7.22,26.52-2.82,30-2,17.62,4.15,26.82,18.39,29,22,2.52,4.19,10.24,18.48,6,35-.8,3.09-3.64,15.14-13,23a83.93,83.93,0,0,1-8,6,35,35,0,0,1,9,8.45,89.64,89.64,0,0,1,9,15.55c6.73,14.76-1.66,31-3,34-1.22,2.68-9.64,20.43-30,26-2.83.78-17,4.66-30-2a156.36,156.36,0,0,1-14.5-8.5,34.49,34.49,0,0,1-5,12,38,38,0,0,1-9,10c-11.47,8.6-27.76,13.5-40,10-7-2-20-6-30-20-5.87-8.21-7.85-18.5-8-27A44.32,44.32,0,0,1,46.84,157.51Z"/></g></g></svg>